<svg xmlns="http://www.w3.org/2000/svg" viewBox="0 0 310.36 264.97">
<title>Obfuscation Mapper Icon</title>
<g fill="#eaf">
 <path d="M125.099.155a50.01 50.01 0 0 0-49.807 49.41h-.004v.35a50.01 50.01 0 0 0 0 .25v89.958a50.01 50.01 0 0 0 0 .153v.248h.002a50.01 50.01 0 0 0 49.715 49.608v.001h7.914v-40.007h-7.622a10.002 10.002 0 0 1-10.002-9.943V50.099a10.002 10.002 0 0 1 9.88-9.934 10.042 10.002 0 0 1 9.964 10.002h.16v22.594h40.008V49.668h-.004A50.21 50.01 0 0 0 125.295.157a50.01 50.01 0 0 0-.088 0 50.21 50.01 0 0 0-.112 0z"/>
 <path d="M117.677 75.14v40.008h67.571a10.002 10.002 0 0 1 10.003 10.002v22.457h40.007v-22.893h-.002a50.01 50.01 0 0 0-49.508-49.572v-.003h-68.071zM51.265 62.766.098 95.143l51.167 32.377v-12.374h21.644V75.14H51.265V62.766z"/>
 <path d="M135.3 117.53v97.576h-.061a50.01 50.01 0 0 0 49.81 50.011 50.109 50.01 0 0 0 .076 0 50.01 50.01 0 0 0 .124 0 50.109 50.01 0 0 0 49.91-49.746h.1v-22.858l-40.007-.137v22.731h-.18a10.022 10.002 0 0 1-9.895 10.002 10.002 10.002 0 0 1-9.925-9.702h.058v-97.879h-40.008z"/>
 <path d="M259.384 137.75v12.374h-81.695v40.007h81.695v12.374l51.066-32.377-51.066-32.377zm-74.026 127.37h-.22v-40.008h.22z"/>
</g>
</svg>
