<svg xmlns="http://www.w3.org/2000/svg" viewBox="0 0 16 16">
 <g fill-rule="evenodd">
  <path fill="#eaf" fill-opacity=".7" d="M1 16h15V9H1z"/>
  <path fill="#9aa7b0" fill-opacity=".8" d="M7 1 3 5h4z"/>
  <path fill="#9aa7b0" fill-opacity=".8" d="M8 1v5H3v2h10V1z"/>
 </g>
 <path fill="#231f20" d="M5.633 15.298h-3.45V9.701h3.45v.982H3.31v1.257h2.054v.981H3.31v1.396h2.323zm.997 0V9.701h1.34l1.449 4.332q-.123-1.342-.123-2.032v-2.3h1.012v5.597h-1.34l-1.434-4.332q.107 1.189.107 1.879v2.453zm6.47.077q-.56 0-.981-.207-.422-.215-.66-.598-.23-.383-.23-.882v-2.376q0-.506.23-.89.238-.383.66-.59.421-.207.981-.207t.981.207q.422.207.652.59.238.384.238.89h-1.15q0-.33-.192-.506-.184-.184-.529-.184-.345 0-.537.184-.184.176-.184.506v2.376q0 .33.184.514.192.176.537.176.345 0 .529-.176.192-.184.192-.514v-.483h-.828v-.973h1.978v1.456q0 .506-.238.89-.23.383-.652.59t-.981.207z" opacity=".7"/>
</svg>
