<svg xmlns="http://www.w3.org/2000/svg" viewBox="0 0 16 16">
 <g fill-rule="evenodd">
  <path fill="#eaf" fill-opacity=".7" d="M1 16h15V9H1z"/>
  <path fill="#9aa7b0" fill-opacity=".8" d="M7 1 3 5h4z"/>
  <path fill="#9aa7b0" fill-opacity=".8" d="M8 1v5H3v2h10V1z"/>
 </g>
 <path fill="#231f20" d="M3.64 15.383q-.882 0-1.404-.475-.513-.476-.513-1.296h1.15q0 .36.207.567t.56.207.559-.199q.207-.207.207-.56v-2.852H3.141V9.702h2.415v3.925q0 .813-.521 1.288-.514.468-1.396.468zm3.894-.085H6.361l1.372-5.597H9.19l1.388 5.597H9.405l-.269-1.265H7.802zm.46-2.185h.943l-.268-1.35-.2-1.027q-.092.514-.191 1.02zm3.097 2.185V9.701h1.296l.513 1.764q.138.483.177.774.03-.291.168-.774l.506-1.764h1.296v5.597h-1.05v-1.533q0-.752.061-1.656.061-.913.146-1.718l-.644 2.53h-.974l-.675-2.53q.1.775.161 1.68.07.904.07 1.694v1.533z" opacity=".7"/>
</svg>
