<svg xmlns="http://www.w3.org/2000/svg" viewBox="0 0 16 16">
  <path fill="#eaf" fill-opacity=".7" fill-rule="evenodd" d="M1 16h15V9H1Z"/>
  <path fill="#9aa7b0" fill-opacity=".8" fill-rule="evenodd" d="M7 1 3 5h4z"/>
  <path fill="#9aa7b0" fill-opacity=".8" fill-rule="evenodd" d="M8 1v5H3v2h10V1Z"/>
  <g style="line-height:1.25">
    <path fill="#231f20" d="M2.075 15.298V9.702h1.91q.59 0 1.027.222.444.222.682.621.245.399.245.935 0 .53-.245.936-.245.398-.682.62-.437.223-1.028.223h-.759v2.04zm1.15-3.036h.76q.367 0 .582-.222.222-.222.222-.56 0-.337-.222-.56-.215-.222-.583-.222h-.759Zm3.45 3.036V9.702H8.47q.598 0 1.035.207.437.207.675.59.245.383.245.905 0 .544-.268.973-.26.43-.713.621l1.058 2.3h-1.25l-.904-2.116H7.81v2.116zm1.135-3.112h.66q.383 0 .59-.192.214-.192.214-.537 0-.36-.214-.56-.207-.199-.59-.199h-.66Zm5.26 3.189q-.844 0-1.342-.475-.499-.476-.499-1.288v-2.224q0-.82.499-1.288.498-.475 1.341-.475.844 0 1.342.475.498.468.498 1.288v2.224q0 .812-.498 1.288-.498.475-1.342.475zm0-.997q.344 0 .513-.176.176-.184.176-.514v-2.376q0-.338-.168-.514-.169-.176-.522-.176-.352 0-.521.176-.169.176-.169.514v2.376q0 .33.169.514.176.176.521.176z" aria-label="PRO" font-family="JetBrains Mono" font-size="7.667" font-weight="800" opacity=".7" style="-inkscape-font-specification:&quot;JetBrains Mono Ultra-Bold&quot;"/>
  </g>
</svg>
