<svg xmlns="http://www.w3.org/2000/svg" viewBox="0 0 16 16">
 <g fill-rule="evenodd">
  <path fill="#eaf" fill-opacity=".7" d="M1 16h15V9H1z"/>
  <path fill="#9aa7b0" fill-opacity=".8" d="M7 1 3 5h4z"/>
  <path fill="#9aa7b0" fill-opacity=".8" d="M8 1v5H3v2h10V1z"/>
 </g>
 <path fill="#231f20" d="M3.294 15.298v-4.562H1.876V9.701h3.987v1.035H4.444v4.562zm4.462 0-1.403-4.217h1.189l.736 2.37q.069.214.122.444.062.23.077.43.015-.2.069-.43.054-.23.115-.437l.72-2.377h1.204l-1.387 4.217zm3.627 0v-1.035h1.41v-3.396l-1.425 1.027v-1.273l1.31-.92h1.266v4.562h1.119v1.035z" aria-label="Tv1" opacity=".7"/>
</svg>
