<svg xmlns="http://www.w3.org/2000/svg" viewBox="0 0 16 16">
 <g fill-rule="evenodd">
  <path fill="#eaf" fill-opacity=".7" d="M1 16h15V9H1z"/>
  <path fill="#9aa7b0" fill-opacity=".8" d="M7 1 3 5h4z"/>
  <path fill="#9aa7b0" fill-opacity=".8" d="M8 1v5H3v2h10V1z"/>
 </g>
 <path fill="#231f20" d="M3.294 15.298v-4.562H1.876V9.701h3.987v1.035H4.444v4.562zm4.462 0-1.403-4.217h1.189l.736 2.37q.069.214.122.444.062.23.077.43.015-.2.069-.43.054-.23.115-.437l.72-2.377h1.204l-1.387 4.217zm3.512 0v-1.027l2.124-2.109q.153-.153.237-.352.085-.207.085-.422 0-.314-.192-.521-.184-.207-.49-.207-.315 0-.514.214-.192.215-.192.552h-1.15q0-.536.238-.935.245-.406.667-.636.429-.23.989-.23.544 0 .95.214.407.207.637.59.23.376.23.875 0 .444-.192.866-.192.414-.621.82l-1.334 1.273h2.208v1.035z" aria-label="Tv2" opacity=".7"/>
</svg>
