<svg xmlns="http://www.w3.org/2000/svg" viewBox="0 0 16 16">
 <g fill-rule="evenodd">
  <path fill="#eaf" fill-opacity=".7" d="M1 16h15V9H1z"/>
  <path fill="#9aa7b0" fill-opacity=".8" d="M7 1 3 5h4z"/>
  <path fill="#9aa7b0" fill-opacity=".8" d="M8 1v5H3v2h10V1z"/>
 </g>
 <path fill="#231f20" d="M3.294 15.298v-4.562H1.876V9.701h3.987v1.035H4.444v4.562zm5.206.077q-.56 0-.981-.207-.422-.215-.66-.59-.23-.384-.23-.89v-2.376q0-.514.23-.89.238-.375.66-.582.421-.215.981-.215.567 0 .981.215.422.207.652.582.238.376.238.89H9.22q0-.338-.192-.514-.184-.176-.529-.176-.345 0-.537.176-.184.176-.184.514v2.376q0 .33.184.514.192.176.537.176.345 0 .529-.176.192-.184.192-.514v-.521h-.828v-.974h1.978v1.495q0 .506-.238.89-.23.375-.652.59-.414.207-.981.207zm2.768-.077v-1.027l2.124-2.109q.153-.153.237-.352.085-.207.085-.422 0-.314-.192-.521-.184-.207-.49-.207-.315 0-.514.214-.192.215-.192.552h-1.15q0-.536.238-.935.245-.406.667-.636.429-.23.989-.23.544 0 .95.214.407.207.637.59.23.376.23.875 0 .444-.192.866-.192.414-.621.82l-1.334 1.273h2.208v1.035z" aria-label="TG2" opacity=".7"/>
</svg>
