<svg xmlns="http://www.w3.org/2000/svg" viewBox="0 0 16 16">
 <g fill-rule="evenodd">
  <path fill="#eaf" fill-opacity=".7" d="M1 16h15V9H1z"/>
  <path fill="#9aa7b0" fill-opacity=".8" d="M7 1 3 5h4z"/>
  <path fill="#9aa7b0" fill-opacity=".8" d="M8 1v5H3v2h10V1z"/>
 </g>
 <path fill="#231f20" d="m1.723 15.298 1.502-2.89L1.822 9.7h1.265l.583 1.227q.146.291.215.506.061-.215.2-.506L4.682 9.7h1.234l-1.403 2.707 1.503 2.89H4.751l-.675-1.38q-.138-.291-.23-.537-.076.246-.214.537l-.675 1.38zm6.747.077q-.583 0-1.028-.2-.437-.199-.675-.559-.237-.368-.237-.851h1.15q0 .284.214.452.223.161.598.161.36 0 .56-.16.207-.162.207-.445 0-.246-.153-.422t-.43-.238l-.567-.13q-.713-.169-1.112-.621-.39-.46-.39-1.12 0-.49.222-.85.23-.368.644-.568.421-.199.981-.199.859 0 1.357.43.506.421.506 1.142h-1.15q0-.269-.192-.422-.191-.153-.536-.153-.33 0-.506.153-.177.146-.177.422 0 .245.138.421.146.177.407.23l.598.138q.743.177 1.127.621.383.437.383 1.112 0 .49-.245.866-.238.376-.675.583t-1.02.207zm4.63 0q-.56 0-.981-.207-.422-.215-.66-.598-.23-.383-.23-.882v-2.376q0-.506.23-.89.238-.383.66-.59.421-.207.981-.207t.981.207q.422.207.652.59.238.384.238.89h-1.15q0-.33-.192-.506-.184-.184-.529-.184-.345 0-.537.184-.184.176-.184.506v2.376q0 .33.184.514.192.176.537.176.345 0 .529-.176.192-.184.192-.514v-.483h-.828v-.973h1.978v1.456q0 .506-.238.89-.23.383-.652.59t-.981.207z" opacity=".7"/>
</svg>
