<?xml version="1.0" encoding="UTF-8" standalone="no"?>
<svg
   xmlns:dc="http://purl.org/dc/elements/1.1/"
   xmlns:cc="http://creativecommons.org/ns#"
   xmlns:rdf="http://www.w3.org/1999/02/22-rdf-syntax-ns#"
   xmlns:svg="http://www.w3.org/2000/svg"
   xmlns="http://www.w3.org/2000/svg"
   xmlns:sodipodi="http://sodipodi.sourceforge.net/DTD/sodipodi-0.dtd"
   xmlns:inkscape="http://www.inkscape.org/namespaces/inkscape"
   width="310.3558mm"
   height="264.96527mm"
   viewBox="0 0 310.3558 264.96527"
   version="1.1"
   id="svg1197"
   inkscape:version="1.0 (4035a4fb49, 2020-05-01)"
   sodipodi:docname="pluginIcon.svg">
  <title
     id="title1902">Obfuscation Mapper Icon</title>
  <defs
     id="defs1191" />
  <sodipodi:namedview
     id="base"
     pagecolor="#ffffff"
     bordercolor="#666666"
     borderopacity="1.0"
     inkscape:pageopacity="0.0"
     inkscape:pageshadow="2"
     inkscape:zoom="1"
     inkscape:cx="626.81259"
     inkscape:cy="547.76977"
     inkscape:document-units="mm"
     inkscape:current-layer="layer1"
     inkscape:document-rotation="0"
     showgrid="false"
     showguides="true"
     inkscape:guide-bbox="true"
     inkscape:snap-bbox="true"
     inkscape:bbox-paths="true"
     inkscape:bbox-nodes="true"
     inkscape:snap-bbox-edge-midpoints="true"
     inkscape:snap-bbox-midpoints="true"
     inkscape:object-paths="true"
     inkscape:snap-intersection-paths="true"
     inkscape:snap-smooth-nodes="true"
     inkscape:snap-midpoints="true"
     inkscape:snap-object-midpoints="true"
     inkscape:snap-center="true"
     inkscape:snap-text-baseline="true"
     inkscape:snap-page="true"
     inkscape:snap-global="true"
     inkscape:snap-nodes="true"
     showborder="true"
     fit-margin-top="0"
     fit-margin-left="0"
     fit-margin-right="0"
     fit-margin-bottom="0"
     inkscape:window-width="1535"
     inkscape:window-height="1026"
     inkscape:window-x="2961"
     inkscape:window-y="222"
     inkscape:window-maximized="0" />
  <metadata
     id="metadata1194">
    <rdf:RDF>
      <cc:Work
         rdf:about="">
        <dc:format>image/svg+xml</dc:format>
        <dc:type
           rdf:resource="http://purl.org/dc/dcmitype/StillImage" />
        <dc:title>Obfuscation Mapper Icon</dc:title>
        <cc:license
           rdf:resource="http://creativecommons.org/licenses/by-nc-sa/4.0/" />
        <dc:creator>
          <cc:Agent>
            <dc:title>Kyle Wood</dc:title>
          </cc:Agent>
        </dc:creator>
      </cc:Work>
      <cc:License
         rdf:about="http://creativecommons.org/licenses/by-nc-sa/4.0/">
        <cc:permits
           rdf:resource="http://creativecommons.org/ns#Reproduction" />
        <cc:permits
           rdf:resource="http://creativecommons.org/ns#Distribution" />
        <cc:requires
           rdf:resource="http://creativecommons.org/ns#Notice" />
        <cc:requires
           rdf:resource="http://creativecommons.org/ns#Attribution" />
        <cc:prohibits
           rdf:resource="http://creativecommons.org/ns#CommercialUse" />
        <cc:permits
           rdf:resource="http://creativecommons.org/ns#DerivativeWorks" />
        <cc:requires
           rdf:resource="http://creativecommons.org/ns#ShareAlike" />
      </cc:License>
    </rdf:RDF>
  </metadata>
  <g
     inkscape:label="Layer 1"
     inkscape:groupmode="layer"
     id="layer1"
     transform="translate(-94.822093,-117.51736)">
    <g
       id="g943"
       style="fill:#eeaaff">
      <path
         transform="matrix(0.26458333,0,0,0.26458333,94.822093,117.51736)"
         d="M 472.81836 0.5859375 L 472.81836 0.58789062 A 189.01639 189.01643 0 0 0 284.57227 187.33594 L 284.56055 187.33594 L 284.56055 188.6543 A 189.01639 189.01643 0 0 0 284.55859 189.60352 L 284.56055 189.60352 L 284.56055 529.60156 L 284.55859 529.60156 A 189.01643 189.01639 0 0 0 284.56055 530.17969 L 284.56055 531.11523 L 284.56641 531.11523 A 189.01643 189.01639 0 0 0 472.4707 718.61523 L 472.4707 718.61914 L 473.57617 718.61914 L 502.38281 718.61914 L 502.38281 567.40625 L 473.57617 567.40625 A 37.804071 37.804071 0 0 1 435.77344 529.82422 L 435.77344 189.34375 A 37.804071 37.804071 0 0 1 473.11719 151.80078 A 37.955327 37.804071 0 0 1 510.77539 189.60352 L 511.38086 189.60352 L 511.38086 274.99805 L 662.59375 274.99805 L 662.59375 187.71484 L 662.58203 187.71484 A 189.77271 189.01639 0 0 0 473.57617 0.58789062 L 473.57617 0.5859375 A 189.01639 189.01643 0 0 0 473.24414 0.58789062 A 189.77271 189.01639 0 0 0 472.81836 0.5859375 z "
         style="fill:#eeaaff;stroke-width:1.00554"
         id="rect1199" />
      <path
         id="path1002"
         transform="matrix(0.26458333,0,0,0.26458333,94.822093,117.51736)"
         d="m 444.77344,283.99609 v 151.21289 h 255.39062 a 37.804071,37.804071 0 0 1 37.80469,37.80469 v 84.875 h 151.21289 v -84.875 -1.65039 h -0.008 A 189.01643,189.01639 0 0 0 702.05078,284.00586 v -0.01 z"
         style="fill:#eeaaff;stroke-width:1.22406" />
      <path
         transform="matrix(0.26458333,0,0,0.26458333,94.822093,117.51736)"
         d="M 193.75781 237.23047 L 0.37109375 359.60156 L 193.75781 481.97461 L 193.75781 435.20898 L 275.5625 435.20898 L 275.5625 283.99609 L 193.75781 283.99609 L 193.75781 237.23047 z "
         style="fill:#eeaaff;stroke-width:1.22406"
         id="rect1199-2-2" />
      <path
         transform="matrix(0.26458333,0,0,0.26458333,94.822093,117.51736)"
         d="M 511.38086 444.20703 L 511.38086 813.01172 L 511.14648 813.01172 A 189.01643 189.01639 0 0 0 699.4082 1002.0273 L 699.4082 1002.0293 A 189.39471 189.01643 0 0 0 699.69531 1002.0293 A 189.01643 189.01639 0 0 0 700.16406 1002.0293 L 700.16406 1002.0273 A 189.39471 189.01643 0 0 0 888.80273 814.00781 L 889.18164 814.00781 L 889.18164 727.61719 L 737.96875 727.09961 L 737.96875 813.01172 L 737.28906 813.01172 A 37.879737 37.804071 0 0 1 699.88867 850.81445 A 37.804071 37.804071 0 0 1 662.37695 814.14453 L 662.59375 814.14453 L 662.59375 444.20703 L 511.38086 444.20703 z "
         style="fill:#eeaaff;stroke-width:1.00389"
         id="path998" />
      <path
         transform="matrix(0.26458333,0,0,0.26458333,94.822093,117.51736)"
         d="M 980.36133 520.64062 L 980.36133 567.40625 L 671.59375 567.40625 L 671.59375 718.61914 L 980.36133 718.61914 L 980.36133 765.38477 L 1173.3691 643.01367 L 980.36133 520.64062 z "
         style="fill:#eeaaff;stroke-width:1.15348"
         id="rect1474-4" />
      <path
         d="m -280.18439,-382.63763 h 0.22082 v 40.00842 h -0.22082 z"
         transform="scale(-1)"
         style="fill:#eeaaff;stroke-width:0.173668"
         id="rect1649-0" />
    </g>
  </g>
</svg>
